<svg width="35" height="35" viewBox="0 0 35 35" fill="none" xmlns="http://www.w3.org/2000/svg">
<circle cx="17.5" cy="17.5" r="17.5" fill="white"/>
<mask id="mask0_83_178" style="mask-type:alpha" maskUnits="userSpaceOnUse" x="2" y="3" width="30" height="30">
<rect x="2" y="3" width="30" height="30" fill="#D9D9D9"/>
</mask>
<g mask="url(#mask0_83_178)">
<path d="M15.0672 18L20.1588 23.0913C20.3317 23.2644 20.4203 23.482 20.4244 23.7441C20.4284 24.0059 20.3399 24.2275 20.1588 24.4088C19.9776 24.5898 19.758 24.6803 19.5001 24.6803C19.2421 24.6803 19.0226 24.5898 18.8413 24.4088L13.2235 18.7909C13.1066 18.6739 13.0241 18.5504 12.976 18.4206C12.9279 18.2908 12.9038 18.1506 12.9038 18C12.9038 17.8494 12.9279 17.7092 12.976 17.5794C13.0241 17.4496 13.1066 17.3261 13.2235 17.2091L18.8413 11.5913C19.0144 11.4183 19.232 11.3298 19.4941 11.3256C19.756 11.3217 19.9776 11.4102 20.1588 11.5913C20.3399 11.7725 20.4304 11.9921 20.4304 12.25C20.4304 12.5079 20.3399 12.7275 20.1588 12.9088L15.0672 18Z" fill="#EDC55B"/>
</g>
</svg>
