<svg width="36" height="30" viewBox="0 0 36 30" fill="none" xmlns="http://www.w3.org/2000/svg">
<mask id="mask0_70_165" style="mask-type:alpha" maskUnits="userSpaceOnUse" x="6" y="0" width="30" height="30">
<rect x="6" width="30" height="30" fill="#D9D9D9"/>
</mask>
<g mask="url(#mask0_70_165)">
<path d="M19.0672 15L24.1588 20.0913C24.3317 20.2644 24.4203 20.482 24.4244 20.7441C24.4284 21.0059 24.3399 21.2275 24.1588 21.4088C23.9776 21.5898 23.758 21.6803 23.5001 21.6803C23.2421 21.6803 23.0226 21.5898 22.8413 21.4088L17.2235 15.7909C17.1066 15.6739 17.0241 15.5504 16.976 15.4206C16.9279 15.2908 16.9038 15.1506 16.9038 15C16.9038 14.8494 16.9279 14.7092 16.976 14.5794C17.0241 14.4496 17.1066 14.3261 17.2235 14.2091L22.8413 8.59125C23.0144 8.41834 23.232 8.32979 23.4941 8.32563C23.756 8.32167 23.9776 8.41021 24.1588 8.59125C24.3399 8.7725 24.4304 8.99209 24.4304 9.25C24.4304 9.50792 24.3399 9.7275 24.1588 9.90875L19.0672 15Z" fill="#EDC55B"/>
</g>
<mask id="mask1_70_165" style="mask-type:alpha" maskUnits="userSpaceOnUse" x="0" y="0" width="30" height="30">
<rect width="30" height="30" transform="matrix(-1 0 0 1 30 0)" fill="#D9D9D9"/>
</mask>
<g mask="url(#mask1_70_165)">
<path d="M16.9328 15L11.8412 20.0913C11.6683 20.2644 11.5797 20.482 11.5756 20.7441C11.5716 21.0059 11.6601 21.2275 11.8412 21.4088C12.0224 21.5898 12.242 21.6803 12.4999 21.6803C12.7579 21.6803 12.9774 21.5898 13.1587 21.4088L18.7765 15.7909C18.8934 15.6739 18.9759 15.5504 19.024 15.4206C19.0721 15.2908 19.0962 15.1506 19.0962 15C19.0962 14.8494 19.0721 14.7092 19.024 14.5794C18.9759 14.4496 18.8934 14.3261 18.7765 14.2091L13.1587 8.59125C12.9856 8.41834 12.768 8.32979 12.5059 8.32563C12.244 8.32167 12.0224 8.41021 11.8412 8.59125C11.6601 8.7725 11.5696 8.99209 11.5696 9.25C11.5696 9.50792 11.6601 9.7275 11.8412 9.90875L16.9328 15Z" fill="#EDC55B"/>
</g>
</svg>
