<svg width="24" height="23" viewBox="0 0 24 23" fill="none" xmlns="http://www.w3.org/2000/svg">
<path d="M9.31834 3.48936C10.1624 0.891573 13.8376 0.891573 14.6817 3.48936C15.3269 5.47517 17.1774 6.81966 19.2654 6.81966C21.9969 6.81966 23.1326 10.315 20.9228 11.9205C19.2336 13.1478 18.5267 15.3232 19.1719 17.309C20.016 19.9068 17.0427 22.067 14.8329 20.4615C13.1437 19.2342 10.8563 19.2342 9.16708 20.4615C6.95727 22.067 3.98399 19.9068 4.82806 17.309C5.47329 15.3232 4.76645 13.1478 3.07722 11.9205C0.867413 10.315 2.0031 6.81966 4.73457 6.81966C6.82258 6.81966 8.67311 5.47517 9.31834 3.48936Z" fill="#EDC55B" stroke="#EDC55B" stroke-width="2"/>
</svg>
