<svg width="50" height="50" viewBox="0 0 50 50" fill="none" xmlns="http://www.w3.org/2000/svg">
<path d="M22.1468 12.0172C23.0449 9.25329 26.9551 9.25328 27.8532 12.0172L28.7637 14.8197C29.4331 16.8798 31.3529 18.2746 33.519 18.2746H36.4657C39.3719 18.2746 40.5802 21.9934 38.229 23.7016L35.8451 25.4336C34.0927 26.7069 33.3594 28.9637 34.0288 31.0238L34.9394 33.8262C35.8374 36.5902 32.674 38.8885 30.3228 37.1803L27.9389 35.4483C26.1865 34.1751 23.8135 34.1751 22.0611 35.4483L19.6772 37.1803C17.326 38.8885 14.1626 36.5902 15.0607 33.8262L15.9712 31.0238C16.6406 28.9637 15.9073 26.7068 14.1549 25.4336L11.771 23.7016C9.41982 21.9934 10.6281 18.2746 13.5343 18.2746H16.481C18.6471 18.2746 20.5669 16.8798 21.2363 14.8197L22.1468 12.0172Z" stroke="black" stroke-width="2"/>
</svg>
