<svg width="32" height="31" viewBox="0 0 32 31" fill="none" xmlns="http://www.w3.org/2000/svg">
<path d="M13.1468 4.01721C14.0449 1.25329 17.9551 1.25328 18.8532 4.01722L19.7637 6.81966C20.4331 8.87977 22.3529 10.2746 24.519 10.2746H27.4657C30.3719 10.2746 31.5802 13.9934 29.229 15.7016L26.8451 17.4336C25.0927 18.7069 24.3594 20.9637 25.0288 23.0238L25.9394 25.8262C26.8374 28.5902 23.674 30.8885 21.3228 29.1803L18.9389 27.4483C17.1865 26.1751 14.8135 26.1751 13.0611 27.4483L10.6772 29.1803C8.32603 30.8885 5.16259 28.5902 6.06065 25.8262L6.97122 23.0238C7.64059 20.9637 6.9073 18.7068 5.15486 17.4336L2.77096 15.7016C0.419821 13.9934 1.62815 10.2746 4.53432 10.2746H7.48098C9.64711 10.2746 11.5669 8.87977 12.2363 6.81966L13.1468 4.01721Z" stroke="black" stroke-opacity="0.4" stroke-width="2"/>
</svg>
